<svg width="161" height="40" viewBox="0 0 161 40" fill="none" xmlns="http://www.w3.org/2000/svg">
    <path
        d="M3.25232 23.0776V37.586H12.3118V24.8216C12.2758 24.8231 12.2399 24.8246 12.2039 24.8259C11.2586 24.7873 10.3157 24.7027 9.37878 24.5724V34.6804H6.2025V23.9678C5.20386 23.7233 4.21906 23.4261 3.25232 23.0776Z"
        fill="#284B8C" />
    <path
        d="M3.25232 2.69475V16.5914C4.20753 17.0443 5.1933 17.4308 6.2025 17.7482V5.58676H9.37878V16.901L12.3118 13.8887V2.69475H3.25232Z"
        fill="#284B8C" />
    <path
        d="M3.25232 18.1888V21.1839C4.21635 21.5612 5.20135 21.8834 6.2025 22.149C7.24718 22.4297 8.30783 22.6481 9.37878 22.8033C9.8013 22.8636 10.2252 22.914 10.6501 22.9545L7.37059 19.5864C6.97865 19.4907 6.58917 19.3855 6.2025 19.2707C5.19664 18.9735 4.21119 18.6121 3.25232 18.1888Z"
        fill="#2EAA50" />
    <path
        d="M21.9274 2.69386L12.3582 13.8887L14.39 15.9753L23.2204 5.64503H27.3327L16.5799 18.2245L16.8099 18.4607C18.2745 18.2228 19.7122 17.8441 21.1028 17.3299L33.6135 2.69386H21.9274Z"
        fill="#284B8C" />
    <path
        d="M23.1304 22.9615C22.488 23.2293 21.8361 23.4739 21.1759 23.6951C20.8666 23.7641 20.5562 23.828 20.2448 23.8869L29.1431 34.6231H25.0824L16.7934 24.5982C16.7738 24.6022 16.7542 24.6063 16.7346 24.6103C15.563 24.7375 14.3847 24.7936 13.2062 24.7782L23.8528 37.5828H35.3044L23.1304 22.9615Z"
        fill="#284B8C" />
    <path d="M8.69377 19.2749L12.3351 23.0146L15.9764 19.2749L12.3351 15.5352L8.69377 19.2749Z"
        fill="#2EAA50" />
    <path
        d="M38.8132 1.31366L38.5361 1.51633L35.3746 3.82789L31.8965 6.37096L34.6082 6.67423L34.9224 6.70937C34.7681 7.07142 34.6048 7.42969 34.4329 7.78384C33.8183 8.89177 33.117 9.95013 32.3355 10.9492C31.5539 11.9482 30.6945 12.8849 29.7651 13.7506C28.8358 14.6162 27.8394 15.4082 26.785 16.1192C25.7308 16.8302 24.6218 17.458 23.4685 17.9969C22.3151 18.5357 21.1209 18.9839 19.8968 19.3374C18.9284 19.5998 17.9445 19.8025 16.9509 19.9444L13.9766 22.9992C14.6941 22.9983 15.4112 22.9692 16.1264 22.912C17.4105 22.7686 18.6827 22.5345 19.9332 22.2114C21.1838 21.8884 22.4095 21.4773 23.6011 20.9812C24.7926 20.4852 25.9469 19.9054 27.0552 19.2464C28.1636 18.5873 29.2231 17.8506 30.2257 17.042C31.2283 16.2334 32.1715 15.3549 33.0481 14.4131C33.9247 13.4713 34.7323 12.4686 35.465 11.4128C36.1977 10.357 36.8535 9.25067 37.4274 8.10227C37.4675 8.00679 37.5071 7.91108 37.546 7.81515L39.8482 9.71379L38.8132 1.31366Z"
        fill="#2EAA50" />
    <path
        d="M65.114 30C64.666 30 64.2713 29.84 63.93 29.52C63.61 29.2 63.45 28.8053 63.45 28.336V6.672C63.45 6.20267 63.61 5.808 63.93 5.488C64.2713 5.168 64.666 5.008 65.114 5.008C65.5833 5.008 65.978 5.168 66.298 5.488C66.618 5.808 66.778 6.20267 66.778 6.672V16.272L77.37 5.68C77.626 5.424 77.8607 5.25333 78.074 5.168C78.2873 5.06133 78.5113 5.008 78.746 5.008C79.2793 5.008 79.6633 5.168 79.898 5.488C80.1327 5.808 80.218 6.192 80.154 6.64C80.09 7.06667 79.8873 7.46133 79.546 7.824L71.386 16.016L79.706 27.344C79.962 27.7067 80.0687 28.1013 80.026 28.528C79.9833 28.9333 79.834 29.2853 79.578 29.584C79.322 29.8613 78.9807 30 78.554 30C77.9567 30 77.498 29.7653 77.178 29.296L69.082 18.32L66.778 20.624V28.336C66.778 28.8053 66.618 29.2 66.298 29.52C65.978 29.84 65.5833 30 65.114 30ZM89.8635 30.128C88.3062 30.128 86.9088 29.744 85.6715 28.976C84.4342 28.1867 83.4528 27.1307 82.7275 25.808C82.0235 24.464 81.6715 22.9493 81.6715 21.264C81.6715 19.5787 82.0555 18.064 82.8235 16.72C83.6128 15.376 84.6688 14.32 85.9915 13.552C87.3355 12.7627 88.8395 12.368 90.5035 12.368C92.1675 12.368 93.6608 12.7627 94.9835 13.552C96.3062 14.32 97.3515 15.376 98.1195 16.72C98.9088 18.064 99.3035 19.5787 99.3035 21.264H98.0555C98.0555 22.9493 97.6928 24.464 96.9675 25.808C96.2635 27.1307 95.2928 28.1867 94.0555 28.976C92.8182 29.744 91.4208 30.128 89.8635 30.128ZM90.5035 27.248C91.5915 27.248 92.5622 26.992 93.4155 26.48C94.2688 25.9467 94.9408 25.232 95.4315 24.336C95.9222 23.4187 96.1675 22.3947 96.1675 21.264C96.1675 20.112 95.9222 19.088 95.4315 18.192C94.9408 17.2747 94.2688 16.56 93.4155 16.048C92.5622 15.5147 91.5915 15.248 90.5035 15.248C89.4368 15.248 88.4662 15.5147 87.5915 16.048C86.7382 16.56 86.0555 17.2747 85.5435 18.192C85.0528 19.088 84.8075 20.112 84.8075 21.264C84.8075 22.3947 85.0528 23.4187 85.5435 24.336C86.0555 25.232 86.7382 25.9467 87.5915 26.48C88.4662 26.992 89.4368 27.248 90.5035 27.248ZM97.6715 30.032C97.2022 30.032 96.8075 29.8827 96.4875 29.584C96.1888 29.264 96.0395 28.8693 96.0395 28.4V23.504L96.6475 20.112L99.3035 21.264V28.4C99.3035 28.8693 99.1435 29.264 98.8235 29.584C98.5248 29.8827 98.1408 30.032 97.6715 30.032ZM90.6315 9.744C90.1622 9.744 89.7675 9.59467 89.4475 9.296C89.1488 8.976 88.9995 8.58133 88.9995 8.112C88.9995 7.664 89.1275 7.30133 89.3835 7.024L92.5195 3.888C92.8395 3.568 93.2235 3.408 93.6715 3.408C94.1622 3.408 94.5568 3.568 94.8555 3.888C95.1542 4.208 95.3035 4.60266 95.3035 5.072C95.3035 5.28533 95.2715 5.488 95.2075 5.68C95.1435 5.872 95.0262 6.04267 94.8555 6.192L91.7515 9.296C91.4528 9.59467 91.0795 9.744 90.6315 9.744ZM118.945 30.032C118.476 30.032 118.081 29.8827 117.761 29.584C117.463 29.264 117.313 28.8693 117.313 28.4V20.528C117.313 19.312 117.089 18.32 116.641 17.552C116.193 16.784 115.585 16.2187 114.817 15.856C114.071 15.472 113.207 15.28 112.225 15.28C111.329 15.28 110.519 15.4613 109.793 15.824C109.068 16.1867 108.492 16.6773 108.065 17.296C107.639 17.8933 107.425 18.5867 107.425 19.376H105.409C105.409 18.032 105.729 16.8373 106.369 15.792C107.031 14.7253 107.927 13.8827 109.057 13.264C110.188 12.6453 111.457 12.336 112.865 12.336C114.337 12.336 115.649 12.656 116.801 13.296C117.975 13.9147 118.892 14.832 119.553 16.048C120.236 17.264 120.577 18.7573 120.577 20.528V28.4C120.577 28.8693 120.417 29.264 120.097 29.584C119.799 29.8827 119.415 30.032 118.945 30.032ZM105.793 30.032C105.324 30.032 104.929 29.8827 104.609 29.584C104.311 29.264 104.161 28.8693 104.161 28.4V14.128C104.161 13.6373 104.311 13.2427 104.609 12.944C104.929 12.6453 105.324 12.496 105.793 12.496C106.284 12.496 106.679 12.6453 106.977 12.944C107.276 13.2427 107.425 13.6373 107.425 14.128V28.4C107.425 28.8693 107.276 29.264 106.977 29.584C106.679 29.8827 106.284 30.032 105.793 30.032ZM133.334 30.16C131.862 30.16 130.539 29.8507 129.366 29.232C128.214 28.592 127.296 27.664 126.614 26.448C125.952 25.232 125.622 23.7387 125.622 21.968V14.096C125.622 13.6267 125.771 13.2427 126.07 12.944C126.39 12.624 126.784 12.464 127.254 12.464C127.723 12.464 128.107 12.624 128.406 12.944C128.726 13.2427 128.886 13.6267 128.886 14.096V21.968C128.886 23.1627 129.11 24.1547 129.558 24.944C130.006 25.712 130.614 26.288 131.382 26.672C132.15 27.0347 133.014 27.216 133.974 27.216C134.891 27.216 135.702 27.0347 136.406 26.672C137.131 26.3093 137.707 25.8187 138.134 25.2C138.56 24.5813 138.774 23.888 138.774 23.12H140.79C140.79 24.4427 140.459 25.6373 139.798 26.704C139.158 27.7707 138.272 28.6133 137.142 29.232C136.032 29.8507 134.763 30.16 133.334 30.16ZM140.406 30C139.936 30 139.542 29.8507 139.222 29.552C138.923 29.232 138.774 28.8373 138.774 28.368V14.096C138.774 13.6053 138.923 13.2107 139.222 12.912C139.542 12.6133 139.936 12.464 140.406 12.464C140.896 12.464 141.291 12.6133 141.59 12.912C141.888 13.2107 142.038 13.6053 142.038 14.096V28.368C142.038 28.8373 141.888 29.232 141.59 29.552C141.291 29.8507 140.896 30 140.406 30ZM159.106 30C158.892 30 158.69 29.968 158.498 29.904C158.306 29.84 158.124 29.7013 157.954 29.488L152.354 22.768L151.202 21.616L145.634 15.024C145.356 14.6827 145.207 14.32 145.186 13.936C145.164 13.5307 145.271 13.1893 145.506 12.912C145.74 12.6347 146.092 12.496 146.562 12.496C147.074 12.496 147.479 12.6773 147.778 13.04L153.25 19.568L154.082 20.336L160.097 27.536C160.418 27.92 160.567 28.304 160.546 28.688C160.546 29.0507 160.407 29.36 160.13 29.616C159.874 29.872 159.532 30 159.106 30ZM146.882 30C146.455 30 146.114 29.872 145.858 29.616C145.623 29.3387 145.506 29.008 145.506 28.624C145.506 28.24 145.655 27.856 145.954 27.472L151.394 20.656L153.122 23.088L148.034 29.488C147.714 29.8293 147.33 30 146.882 30ZM154.786 21.776L152.578 19.888L157.73 13.04C157.9 12.8267 158.082 12.688 158.274 12.624C158.466 12.5387 158.679 12.496 158.914 12.496C159.383 12.496 159.735 12.6453 159.97 12.944C160.204 13.2213 160.311 13.5627 160.29 13.968C160.29 14.3733 160.14 14.768 159.842 15.152L154.786 21.776Z"
        fill="#284B8C" />
</svg>